<mxfile host="Electron" modified="2024-06-08T19:31:12.457Z" agent="Mozilla/5.0 (Windows NT 10.0; Win64; x64) AppleWebKit/537.36 (KHTML, like Gecko) draw.io/24.4.8 Chrome/124.0.6367.207 Electron/30.0.6 Safari/537.36" etag="k-VL85bwdOEyF1rJrxpJ" version="24.4.8" type="device">
  <diagram name="Página-1" id="BdjS43Feo9-oXrzBICSS">
    <mxGraphModel dx="1420" dy="830" grid="1" gridSize="10" guides="1" tooltips="1" connect="1" arrows="1" fold="1" page="1" pageScale="1" pageWidth="827" pageHeight="1169" background="#CCE5FF" math="0" shadow="0">
      <root>
        <mxCell id="0" />
        <mxCell id="1" parent="0" />
        <mxCell id="-SXecstMaV4YXtNtMgRF-1" value="&lt;b style=&quot;font-size: 15px;&quot;&gt;&lt;font style=&quot;font-size: 15px;&quot; color=&quot;#000000&quot; face=&quot;Comic Sans MS&quot;&gt;5 Hacer una función llamada Redondear que reciba como parámetro un número float y devuelva un número entero con el redondeo del mismo.&lt;br&gt;Por ejemplo:&lt;br&gt;Si recibe 7.78, debe devolver 8.&lt;br&gt;Si recibe 7.48, debe devolver 7.&lt;br&gt;Si recibe 7.5, debe devolver 8.&lt;br&gt;Hacer un programa para ingresar un número y, utilizando Redondear, emita luego un cartel indicando el número redondeado.&lt;/font&gt;&lt;/b&gt;" style="text;whiteSpace=wrap;html=1;fontFamily=Architects Daughter;fontSource=https%3A%2F%2Ffonts.googleapis.com%2Fcss%3Ffamily%3DArchitects%2BDaughter;" vertex="1" parent="1">
          <mxGeometry x="30" y="10" width="790" height="170" as="geometry" />
        </mxCell>
        <mxCell id="-SXecstMaV4YXtNtMgRF-6" value="" style="line;strokeWidth=2;direction=south;html=1;hachureGap=4;fontFamily=Architects Daughter;fontSource=https://fonts.googleapis.com/css?family=Architects+Daughter;strokeColor=#000000;" vertex="1" parent="1">
          <mxGeometry x="680" y="200" width="10" height="690" as="geometry" />
        </mxCell>
        <mxCell id="-SXecstMaV4YXtNtMgRF-50" value="" style="group;aspect=fixed;" vertex="1" connectable="0" parent="1">
          <mxGeometry x="730" y="300" width="378" height="420" as="geometry" />
        </mxCell>
        <mxCell id="-SXecstMaV4YXtNtMgRF-12" value="" style="group;aspect=fixed;" vertex="1" connectable="0" parent="-SXecstMaV4YXtNtMgRF-50">
          <mxGeometry x="88.5" width="206.24584173387098" height="49.99949596774195" as="geometry" />
        </mxCell>
        <mxCell id="-SXecstMaV4YXtNtMgRF-3" value="" style="shape=hexagon;perimeter=hexagonPerimeter2;whiteSpace=wrap;html=1;fixedSize=1;rounded=0;labelBackgroundColor=none;strokeColor=#4f514d;strokeWidth=2;align=center;verticalAlign=middle;fontFamily=Helvetica;fontSize=12;fillColor=#d5e8d4;aspect=fixed;container=0;" vertex="1" parent="-SXecstMaV4YXtNtMgRF-12">
          <mxGeometry width="206.245841733871" height="49.99899193548387" as="geometry" />
        </mxCell>
        <mxCell id="-SXecstMaV4YXtNtMgRF-4" value="" style="line;strokeWidth=2;html=1;rounded=0;labelBackgroundColor=none;align=center;verticalAlign=middle;fontFamily=Helvetica;fontSize=12;strokeColor=#252323;aspect=fixed;container=0;" vertex="1" parent="-SXecstMaV4YXtNtMgRF-12">
          <mxGeometry y="18.75" width="206.245841733871" height="12.499747983870968" as="geometry" />
        </mxCell>
        <mxCell id="-SXecstMaV4YXtNtMgRF-5" value="" style="line;strokeWidth=2;direction=south;html=1;rounded=0;labelBackgroundColor=none;strokeColor=#000000;align=center;verticalAlign=middle;fontFamily=Helvetica;fontSize=12;fontColor=default;fillColor=#d5e8d4;aspect=fixed;container=0;" vertex="1" parent="-SXecstMaV4YXtNtMgRF-12">
          <mxGeometry x="131.25" y="25" width="6.249873991935484" height="24.999495967741936" as="geometry" />
        </mxCell>
        <mxCell id="-SXecstMaV4YXtNtMgRF-7" value="&lt;b style=&quot;&quot;&gt;&lt;font face=&quot;Comic Sans MS&quot; style=&quot;font-size: 14px;&quot; color=&quot;#000000&quot;&gt;float Redondeo&lt;/font&gt;&lt;/b&gt;" style="text;strokeColor=none;align=center;fillColor=none;html=1;verticalAlign=middle;whiteSpace=wrap;rounded=0;fontFamily=Architects Daughter;fontSource=https%3A%2F%2Ffonts.googleapis.com%2Fcss%3Ffamily%3DArchitects%2BDaughter;fontSize=13;aspect=fixed;container=0;" vertex="1" parent="-SXecstMaV4YXtNtMgRF-12">
          <mxGeometry x="45.129999999999995" y="3" width="116" height="20" as="geometry" />
        </mxCell>
        <mxCell id="-SXecstMaV4YXtNtMgRF-8" value="&lt;b&gt;&lt;font color=&quot;#000000&quot; style=&quot;font-size: 14px;&quot; face=&quot;Comic Sans MS&quot;&gt;float A&lt;/font&gt;&lt;/b&gt;" style="text;strokeColor=none;align=center;fillColor=none;html=1;verticalAlign=middle;whiteSpace=wrap;rounded=0;fontFamily=Architects Daughter;fontSource=https://fonts.googleapis.com/css?family=Architects+Daughter;aspect=fixed;container=0;" vertex="1" parent="-SXecstMaV4YXtNtMgRF-12">
          <mxGeometry x="32" y="28" width="90" height="20" as="geometry" />
        </mxCell>
        <mxCell id="-SXecstMaV4YXtNtMgRF-15" value="" style="group" vertex="1" connectable="0" parent="-SXecstMaV4YXtNtMgRF-50">
          <mxGeometry x="79.12" y="80" width="225" height="50" as="geometry" />
        </mxCell>
        <mxCell id="-SXecstMaV4YXtNtMgRF-13" value="" style="rounded=0;whiteSpace=wrap;html=1;labelBackgroundColor=none;strokeColor=#0f100e;strokeWidth=2;align=center;verticalAlign=middle;fontFamily=Helvetica;fontSize=12;fontColor=default;fillColor=#d5e8d4;aspect=fixed;" vertex="1" parent="-SXecstMaV4YXtNtMgRF-15">
          <mxGeometry x="7.5" width="210" height="50" as="geometry" />
        </mxCell>
        <mxCell id="-SXecstMaV4YXtNtMgRF-14" value="&lt;font face=&quot;Comic Sans MS&quot; color=&quot;#000000&quot;&gt;&lt;span style=&quot;font-size: 14px;&quot;&gt;&lt;b&gt;int F = A&lt;/b&gt;&lt;/span&gt;&lt;/font&gt;&lt;div&gt;&lt;font face=&quot;Comic Sans MS&quot; color=&quot;#000000&quot;&gt;&lt;span style=&quot;font-size: 14px;&quot;&gt;&lt;b&gt;float resultado = A - F&lt;/b&gt;&lt;/span&gt;&lt;/font&gt;&lt;/div&gt;" style="text;strokeColor=none;align=center;fillColor=none;html=1;verticalAlign=middle;whiteSpace=wrap;rounded=0;fontFamily=Architects Daughter;fontSource=https://fonts.googleapis.com/css?family=Architects+Daughter;container=0;aspect=fixed;" vertex="1" parent="-SXecstMaV4YXtNtMgRF-15">
          <mxGeometry width="225" height="50" as="geometry" />
        </mxCell>
        <mxCell id="-SXecstMaV4YXtNtMgRF-41" value="" style="line;strokeWidth=2;direction=south;html=1;hachureGap=4;fontFamily=Architects Daughter;fontSource=https://fonts.googleapis.com/css?family=Architects+Daughter;strokeColor=#000000;" vertex="1" parent="-SXecstMaV4YXtNtMgRF-15">
          <mxGeometry x="107.5" y="-30" width="10" height="30" as="geometry" />
        </mxCell>
        <mxCell id="-SXecstMaV4YXtNtMgRF-18" value="" style="group;aspect=fixed;" vertex="1" connectable="0" parent="-SXecstMaV4YXtNtMgRF-50">
          <mxGeometry x="136.62" y="160" width="110" height="90" as="geometry" />
        </mxCell>
        <mxCell id="-SXecstMaV4YXtNtMgRF-16" value="" style="rhombus;whiteSpace=wrap;html=1;rounded=0;labelBackgroundColor=none;strokeColor=#0F140C;strokeWidth=2;align=center;verticalAlign=middle;fontFamily=Helvetica;fontSize=12;fontColor=default;fillColor=#d5e8d4;" vertex="1" parent="-SXecstMaV4YXtNtMgRF-18">
          <mxGeometry width="110" height="90" as="geometry" />
        </mxCell>
        <mxCell id="-SXecstMaV4YXtNtMgRF-17" value="&lt;font face=&quot;Comic Sans MS&quot; color=&quot;#000000&quot;&gt;&lt;span style=&quot;font-size: 14px;&quot;&gt;&lt;b&gt;resultado&lt;/b&gt;&lt;/span&gt;&lt;/font&gt;&lt;div&gt;&lt;font face=&quot;Comic Sans MS&quot; color=&quot;#000000&quot;&gt;&lt;span style=&quot;font-size: 14px;&quot;&gt;&lt;b&gt;&amp;gt;=&lt;/b&gt;&lt;/span&gt;&lt;/font&gt;&lt;/div&gt;&lt;div&gt;&lt;font face=&quot;Comic Sans MS&quot; color=&quot;#000000&quot;&gt;&lt;span style=&quot;font-size: 14px;&quot;&gt;&lt;b&gt;0.5&lt;/b&gt;&lt;/span&gt;&lt;/font&gt;&lt;/div&gt;" style="text;strokeColor=none;align=center;fillColor=none;html=1;verticalAlign=middle;whiteSpace=wrap;rounded=0;fontFamily=Architects Daughter;fontSource=https://fonts.googleapis.com/css?family=Architects+Daughter;container=0;" vertex="1" parent="-SXecstMaV4YXtNtMgRF-18">
          <mxGeometry x="8" y="20" width="93" height="60" as="geometry" />
        </mxCell>
        <mxCell id="-SXecstMaV4YXtNtMgRF-26" value="" style="group;aspect=fixed;" vertex="1" connectable="0" parent="-SXecstMaV4YXtNtMgRF-50">
          <mxGeometry y="270" width="171" height="40" as="geometry" />
        </mxCell>
        <mxCell id="-SXecstMaV4YXtNtMgRF-21" value="" style="rounded=0;whiteSpace=wrap;html=1;labelBackgroundColor=none;strokeColor=#0f100e;strokeWidth=2;align=center;verticalAlign=middle;fontFamily=Helvetica;fontSize=12;fontColor=default;fillColor=#d5e8d4;aspect=fixed;" vertex="1" parent="-SXecstMaV4YXtNtMgRF-26">
          <mxGeometry width="170" height="40" as="geometry" />
        </mxCell>
        <mxCell id="-SXecstMaV4YXtNtMgRF-23" value="&lt;b&gt;&lt;font color=&quot;#000000&quot; style=&quot;font-size: 14px;&quot; face=&quot;Comic Sans MS&quot;&gt;resultado = (int) A + 1&lt;/font&gt;&lt;/b&gt;" style="text;strokeColor=none;align=center;fillColor=none;html=1;verticalAlign=middle;whiteSpace=wrap;rounded=0;fontFamily=Architects Daughter;fontSource=https://fonts.googleapis.com/css?family=Architects+Daughter;container=0;aspect=fixed;" vertex="1" parent="-SXecstMaV4YXtNtMgRF-26">
          <mxGeometry x="1" y="5" width="170" height="30" as="geometry" />
        </mxCell>
        <mxCell id="-SXecstMaV4YXtNtMgRF-28" value="" style="group;aspect=fixed;" vertex="1" connectable="0" parent="-SXecstMaV4YXtNtMgRF-50">
          <mxGeometry x="208" y="270" width="170" height="40" as="geometry" />
        </mxCell>
        <mxCell id="-SXecstMaV4YXtNtMgRF-25" value="" style="rounded=0;whiteSpace=wrap;html=1;labelBackgroundColor=none;strokeColor=#0f100e;strokeWidth=2;align=center;verticalAlign=middle;fontFamily=Helvetica;fontSize=12;fontColor=default;fillColor=#d5e8d4;" vertex="1" parent="-SXecstMaV4YXtNtMgRF-28">
          <mxGeometry width="170" height="40" as="geometry" />
        </mxCell>
        <mxCell id="-SXecstMaV4YXtNtMgRF-27" value="&lt;font face=&quot;Comic Sans MS&quot; color=&quot;#000000&quot;&gt;&lt;span style=&quot;font-size: 14px;&quot;&gt;&lt;b&gt;resultado = (int) A&lt;/b&gt;&lt;/span&gt;&lt;/font&gt;" style="text;strokeColor=none;align=center;fillColor=none;html=1;verticalAlign=middle;whiteSpace=wrap;rounded=0;fontFamily=Architects Daughter;fontSource=https://fonts.googleapis.com/css?family=Architects+Daughter;container=0;" vertex="1" parent="-SXecstMaV4YXtNtMgRF-28">
          <mxGeometry width="160" height="40" as="geometry" />
        </mxCell>
        <mxCell id="-SXecstMaV4YXtNtMgRF-31" value="" style="group;aspect=fixed;" vertex="1" connectable="0" parent="-SXecstMaV4YXtNtMgRF-50">
          <mxGeometry x="98.67999999999995" y="380" width="185.88" height="40" as="geometry" />
        </mxCell>
        <mxCell id="-SXecstMaV4YXtNtMgRF-29" value="" style="shape=hexagon;perimeter=hexagonPerimeter2;whiteSpace=wrap;html=1;fixedSize=1;rounded=0;labelBackgroundColor=none;strokeColor=#0F140C;strokeWidth=3;align=center;verticalAlign=middle;fontFamily=Helvetica;fontSize=12;fontColor=default;fillColor=#d5e8d4;" vertex="1" parent="-SXecstMaV4YXtNtMgRF-31">
          <mxGeometry width="185.88" height="40" as="geometry" />
        </mxCell>
        <mxCell id="-SXecstMaV4YXtNtMgRF-30" value="&lt;font face=&quot;Comic Sans MS&quot; color=&quot;#000000&quot;&gt;&lt;span style=&quot;font-size: 14px;&quot;&gt;&lt;b&gt;return resultado&lt;/b&gt;&lt;/span&gt;&lt;/font&gt;" style="text;strokeColor=none;align=center;fillColor=none;html=1;verticalAlign=middle;whiteSpace=wrap;rounded=0;fontFamily=Architects Daughter;fontSource=https://fonts.googleapis.com/css?family=Architects+Daughter;container=0;aspect=fixed;" vertex="1" parent="-SXecstMaV4YXtNtMgRF-31">
          <mxGeometry x="10.93999999999994" y="5" width="170" height="30" as="geometry" />
        </mxCell>
        <mxCell id="-SXecstMaV4YXtNtMgRF-45" value="" style="line;strokeWidth=2;direction=south;html=1;hachureGap=4;fontFamily=Architects Daughter;fontSource=https://fonts.googleapis.com/css?family=Architects+Daughter;strokeColor=#000000;" vertex="1" parent="-SXecstMaV4YXtNtMgRF-31">
          <mxGeometry x="87.32" y="-37" width="10" height="37" as="geometry" />
        </mxCell>
        <mxCell id="-SXecstMaV4YXtNtMgRF-34" value="" style="line;strokeWidth=2;html=1;perimeter=backbonePerimeter;points=[];outlineConnect=0;hachureGap=4;fontFamily=Architects Daughter;fontSource=https://fonts.googleapis.com/css?family=Architects+Daughter;strokeColor=#000000;" vertex="1" parent="-SXecstMaV4YXtNtMgRF-50">
          <mxGeometry x="245.6199999999999" y="200" width="53.38" height="10" as="geometry" />
        </mxCell>
        <mxCell id="-SXecstMaV4YXtNtMgRF-35" value="" style="line;strokeWidth=2;html=1;perimeter=backbonePerimeter;points=[];outlineConnect=0;hachureGap=4;fontFamily=Architects Daughter;fontSource=https://fonts.googleapis.com/css?family=Architects+Daughter;strokeColor=#000000;" vertex="1" parent="-SXecstMaV4YXtNtMgRF-50">
          <mxGeometry x="79.12" y="336.5" width="220.88" height="10" as="geometry" />
        </mxCell>
        <mxCell id="-SXecstMaV4YXtNtMgRF-36" value="" style="line;strokeWidth=2;html=1;perimeter=backbonePerimeter;points=[];outlineConnect=0;hachureGap=4;fontFamily=Architects Daughter;fontSource=https://fonts.googleapis.com/css?family=Architects+Daughter;strokeColor=#000000;" vertex="1" parent="-SXecstMaV4YXtNtMgRF-50">
          <mxGeometry x="76" y="200" width="64.62" height="10" as="geometry" />
        </mxCell>
        <mxCell id="-SXecstMaV4YXtNtMgRF-39" value="" style="line;strokeWidth=2;direction=south;html=1;hachureGap=4;fontFamily=Architects Daughter;fontSource=https://fonts.googleapis.com/css?family=Architects+Daughter;strokeColor=#000000;" vertex="1" parent="-SXecstMaV4YXtNtMgRF-50">
          <mxGeometry x="73" y="206" width="10" height="64" as="geometry" />
        </mxCell>
        <mxCell id="-SXecstMaV4YXtNtMgRF-40" value="" style="line;strokeWidth=2;direction=south;html=1;hachureGap=4;fontFamily=Architects Daughter;fontSource=https://fonts.googleapis.com/css?family=Architects+Daughter;strokeColor=#000000;" vertex="1" parent="-SXecstMaV4YXtNtMgRF-50">
          <mxGeometry x="186.62" y="130" width="10" height="30" as="geometry" />
        </mxCell>
        <mxCell id="-SXecstMaV4YXtNtMgRF-42" value="" style="line;strokeWidth=2;direction=south;html=1;hachureGap=4;fontFamily=Architects Daughter;fontSource=https://fonts.googleapis.com/css?family=Architects+Daughter;strokeColor=#000000;" vertex="1" parent="-SXecstMaV4YXtNtMgRF-50">
          <mxGeometry x="294.1199999999999" y="204" width="10" height="66" as="geometry" />
        </mxCell>
        <mxCell id="-SXecstMaV4YXtNtMgRF-43" value="" style="line;strokeWidth=2;direction=south;html=1;hachureGap=4;fontFamily=Architects Daughter;fontSource=https://fonts.googleapis.com/css?family=Architects+Daughter;strokeColor=#000000;" vertex="1" parent="-SXecstMaV4YXtNtMgRF-50">
          <mxGeometry x="293" y="310" width="10" height="30" as="geometry" />
        </mxCell>
        <mxCell id="-SXecstMaV4YXtNtMgRF-44" value="" style="line;strokeWidth=2;direction=south;html=1;hachureGap=4;fontFamily=Architects Daughter;fontSource=https://fonts.googleapis.com/css?family=Architects+Daughter;strokeColor=#000000;" vertex="1" parent="-SXecstMaV4YXtNtMgRF-50">
          <mxGeometry x="73" y="310" width="10" height="30" as="geometry" />
        </mxCell>
        <mxCell id="-SXecstMaV4YXtNtMgRF-46" value="&lt;b&gt;&lt;font color=&quot;#000000&quot; style=&quot;font-size: 14px;&quot; face=&quot;Comic Sans MS&quot;&gt;V&lt;/font&gt;&lt;/b&gt;" style="text;strokeColor=none;align=center;fillColor=none;html=1;verticalAlign=middle;whiteSpace=wrap;rounded=0;fontFamily=Architects Daughter;fontSource=https://fonts.googleapis.com/css?family=Architects+Daughter;container=0;" vertex="1" parent="-SXecstMaV4YXtNtMgRF-50">
          <mxGeometry x="59.680000000000064" y="188" width="40" height="13.33" as="geometry" />
        </mxCell>
        <mxCell id="-SXecstMaV4YXtNtMgRF-47" value="&lt;b&gt;&lt;font color=&quot;#000000&quot; style=&quot;font-size: 14px;&quot; face=&quot;Comic Sans MS&quot;&gt;F&lt;/font&gt;&lt;/b&gt;" style="text;strokeColor=none;align=center;fillColor=none;html=1;verticalAlign=middle;whiteSpace=wrap;rounded=0;fontFamily=Architects Daughter;fontSource=https://fonts.googleapis.com/css?family=Architects+Daughter;container=0;" vertex="1" parent="-SXecstMaV4YXtNtMgRF-50">
          <mxGeometry x="274" y="186.67000000000002" width="40" height="13.33" as="geometry" />
        </mxCell>
        <mxCell id="-SXecstMaV4YXtNtMgRF-91" value="" style="group;aspect=fixed;" vertex="1" connectable="0" parent="1">
          <mxGeometry x="63" y="250" width="369" height="536" as="geometry" />
        </mxCell>
        <mxCell id="-SXecstMaV4YXtNtMgRF-51" value="" style="group;" vertex="1" connectable="0" parent="-SXecstMaV4YXtNtMgRF-91">
          <mxGeometry x="141" y="78" width="210" height="60" as="geometry" />
        </mxCell>
        <mxCell id="-SXecstMaV4YXtNtMgRF-52" value="" style="shape=hexagon;perimeter=hexagonPerimeter2;whiteSpace=wrap;html=1;fixedSize=1;rounded=0;labelBackgroundColor=none;strokeColor=#0F140C;strokeWidth=3;align=center;verticalAlign=middle;fontFamily=Helvetica;fontSize=12;fontColor=default;fillColor=#d5e8d4;" vertex="1" parent="-SXecstMaV4YXtNtMgRF-51">
          <mxGeometry width="210" height="60" as="geometry" />
        </mxCell>
        <mxCell id="-SXecstMaV4YXtNtMgRF-53" value="" style="endArrow=none;html=1;rounded=0;exitX=-0.01;exitY=0.5;exitDx=0;exitDy=0;exitPerimeter=0;strokeWidth=2;strokeColor=#000000;" edge="1" parent="-SXecstMaV4YXtNtMgRF-51" source="-SXecstMaV4YXtNtMgRF-52">
          <mxGeometry width="50" height="50" relative="1" as="geometry">
            <mxPoint x="94.13793103448276" y="37.5" as="sourcePoint" />
            <mxPoint x="210" y="30" as="targetPoint" />
            <Array as="points" />
          </mxGeometry>
        </mxCell>
        <mxCell id="-SXecstMaV4YXtNtMgRF-59" value="&lt;font size=&quot;1&quot; face=&quot;Comic Sans MS&quot; color=&quot;#000000&quot;&gt;&lt;b style=&quot;font-size: 18px;&quot;&gt;int main&lt;/b&gt;&lt;/font&gt;" style="text;strokeColor=none;align=center;fillColor=none;html=1;verticalAlign=middle;whiteSpace=wrap;rounded=0;fontFamily=Architects Daughter;fontSource=https%3A%2F%2Ffonts.googleapis.com%2Fcss%3Ffamily%3DArchitects%2BDaughter;" vertex="1" parent="-SXecstMaV4YXtNtMgRF-51">
          <mxGeometry x="41.5" y="1" width="125" height="30" as="geometry" />
        </mxCell>
        <mxCell id="-SXecstMaV4YXtNtMgRF-62" value="" style="group" vertex="1" connectable="0" parent="-SXecstMaV4YXtNtMgRF-91">
          <mxGeometry x="220.5" width="51" height="50" as="geometry" />
        </mxCell>
        <mxCell id="-SXecstMaV4YXtNtMgRF-54" value="" style="strokeWidth=2;html=1;shape=mxgraph.flowchart.start_2;whiteSpace=wrap;rounded=0;labelBackgroundColor=none;strokeColor=#000000;align=center;verticalAlign=middle;fontFamily=Helvetica;fontSize=12;fontColor=default;fillColor=#d5e8d4;aspect=fixed;" vertex="1" parent="-SXecstMaV4YXtNtMgRF-62">
          <mxGeometry x="1" width="50" height="50" as="geometry" />
        </mxCell>
        <mxCell id="-SXecstMaV4YXtNtMgRF-61" value="&lt;font size=&quot;1&quot; face=&quot;Comic Sans MS&quot; color=&quot;#000000&quot;&gt;&lt;b style=&quot;font-size: 18px;&quot;&gt;A&lt;/b&gt;&lt;/font&gt;" style="text;strokeColor=none;align=center;fillColor=none;html=1;verticalAlign=middle;whiteSpace=wrap;rounded=0;fontFamily=Architects Daughter;fontSource=https://fonts.googleapis.com/css?family=Architects+Daughter;aspect=fixed;" vertex="1" parent="-SXecstMaV4YXtNtMgRF-62">
          <mxGeometry y="9" width="50" height="30" as="geometry" />
        </mxCell>
        <mxCell id="-SXecstMaV4YXtNtMgRF-63" value="" style="group" vertex="1" connectable="0" parent="-SXecstMaV4YXtNtMgRF-91">
          <mxGeometry x="219.5" y="486" width="50" height="50" as="geometry" />
        </mxCell>
        <mxCell id="-SXecstMaV4YXtNtMgRF-55" value="" style="strokeWidth=2;html=1;shape=mxgraph.flowchart.start_2;whiteSpace=wrap;rounded=0;labelBackgroundColor=none;strokeColor=#000000;align=center;verticalAlign=middle;fontFamily=Helvetica;fontSize=12;fontColor=default;fillColor=#d5e8d4;aspect=fixed;" vertex="1" parent="-SXecstMaV4YXtNtMgRF-63">
          <mxGeometry width="50" height="50" as="geometry" />
        </mxCell>
        <mxCell id="-SXecstMaV4YXtNtMgRF-60" value="&lt;font size=&quot;1&quot; face=&quot;Comic Sans MS&quot; color=&quot;#000000&quot;&gt;&lt;b style=&quot;font-size: 18px;&quot;&gt;F&lt;/b&gt;&lt;/font&gt;" style="text;strokeColor=none;align=center;fillColor=none;html=1;verticalAlign=middle;whiteSpace=wrap;rounded=0;fontFamily=Architects Daughter;fontSource=https://fonts.googleapis.com/css?family=Architects+Daughter;aspect=fixed;" vertex="1" parent="-SXecstMaV4YXtNtMgRF-63">
          <mxGeometry y="10" width="50" height="30" as="geometry" />
        </mxCell>
        <mxCell id="-SXecstMaV4YXtNtMgRF-66" value="" style="group" vertex="1" connectable="0" parent="-SXecstMaV4YXtNtMgRF-91">
          <mxGeometry x="183" y="168" width="126" height="50" as="geometry" />
        </mxCell>
        <mxCell id="-SXecstMaV4YXtNtMgRF-64" value="" style="rounded=0;whiteSpace=wrap;html=1;labelBackgroundColor=none;strokeColor=#0f100e;strokeWidth=2;align=center;verticalAlign=middle;fontFamily=Helvetica;fontSize=12;fontColor=default;fillColor=#d5e8d4;aspect=fixed;" vertex="1" parent="-SXecstMaV4YXtNtMgRF-66">
          <mxGeometry width="126" height="50" as="geometry" />
        </mxCell>
        <mxCell id="-SXecstMaV4YXtNtMgRF-65" value="&lt;font face=&quot;Comic Sans MS&quot; color=&quot;#000000&quot;&gt;&lt;span style=&quot;font-size: 15px;&quot;&gt;&lt;b&gt;float n&lt;/b&gt;&lt;/span&gt;&lt;/font&gt;&lt;div&gt;&lt;font face=&quot;Comic Sans MS&quot; color=&quot;#000000&quot;&gt;&lt;span style=&quot;font-size: 15px;&quot;&gt;&lt;b&gt;int r = 0&lt;/b&gt;&lt;/span&gt;&lt;/font&gt;&lt;/div&gt;" style="text;strokeColor=none;align=center;fillColor=none;html=1;verticalAlign=middle;whiteSpace=wrap;rounded=0;fontFamily=Architects Daughter;fontSource=https://fonts.googleapis.com/css?family=Architects+Daughter;aspect=fixed;" vertex="1" parent="-SXecstMaV4YXtNtMgRF-66">
          <mxGeometry x="8" width="110" height="50" as="geometry" />
        </mxCell>
        <mxCell id="-SXecstMaV4YXtNtMgRF-69" value="" style="group;aspect=fixed;" vertex="1" connectable="0" parent="-SXecstMaV4YXtNtMgRF-91">
          <mxGeometry x="176" y="250" width="140" height="40" as="geometry" />
        </mxCell>
        <mxCell id="-SXecstMaV4YXtNtMgRF-67" value="" style="shape=trapezoid;perimeter=trapezoidPerimeter;whiteSpace=wrap;html=1;fixedSize=1;rounded=0;labelBackgroundColor=none;strokeColor=#121211;strokeWidth=2;align=center;verticalAlign=middle;fontFamily=Helvetica;fontSize=12;fontColor=default;fillColor=#d5e8d4;direction=west;container=0;aspect=fixed;" vertex="1" parent="-SXecstMaV4YXtNtMgRF-69">
          <mxGeometry width="140" height="40" as="geometry">
            <mxRectangle x="-1020" y="-650" width="50" height="40" as="alternateBounds" />
          </mxGeometry>
        </mxCell>
        <mxCell id="-SXecstMaV4YXtNtMgRF-68" value="&lt;font size=&quot;1&quot; face=&quot;Comic Sans MS&quot; color=&quot;#000000&quot;&gt;&lt;b style=&quot;font-size: 17px;&quot;&gt;n&lt;/b&gt;&lt;/font&gt;" style="text;strokeColor=none;align=center;fillColor=none;html=1;verticalAlign=middle;whiteSpace=wrap;rounded=0;fontFamily=Architects Daughter;fontSource=https://fonts.googleapis.com/css?family=Architects+Daughter;aspect=fixed;container=0;" vertex="1" parent="-SXecstMaV4YXtNtMgRF-69">
          <mxGeometry x="38.5" y="5" width="60" height="27.27" as="geometry" />
        </mxCell>
        <mxCell id="-SXecstMaV4YXtNtMgRF-70" value="" style="group;aspect=fixed;" vertex="1" connectable="0" parent="-SXecstMaV4YXtNtMgRF-91">
          <mxGeometry x="109" y="319" width="260" height="63.03" as="geometry" />
        </mxCell>
        <mxCell id="-SXecstMaV4YXtNtMgRF-71" value="" style="shape=hexagon;perimeter=hexagonPerimeter2;whiteSpace=wrap;html=1;fixedSize=1;rounded=0;labelBackgroundColor=none;strokeColor=#4f514d;strokeWidth=2;align=center;verticalAlign=middle;fontFamily=Helvetica;fontSize=12;fillColor=#d5e8d4;aspect=fixed;" vertex="1" parent="-SXecstMaV4YXtNtMgRF-70">
          <mxGeometry width="259.9947580645162" height="63.029032258064525" as="geometry" />
        </mxCell>
        <mxCell id="-SXecstMaV4YXtNtMgRF-72" value="" style="line;strokeWidth=2;html=1;rounded=0;labelBackgroundColor=none;align=center;verticalAlign=middle;fontFamily=Helvetica;fontSize=12;strokeColor=#252323;aspect=fixed;" vertex="1" parent="-SXecstMaV4YXtNtMgRF-70">
          <mxGeometry y="23.63625" width="259.9947580645162" height="15.757258064516131" as="geometry" />
        </mxCell>
        <mxCell id="-SXecstMaV4YXtNtMgRF-73" value="" style="line;strokeWidth=2;direction=south;html=1;rounded=0;labelBackgroundColor=none;strokeColor=#000000;align=center;verticalAlign=middle;fontFamily=Helvetica;fontSize=12;fontColor=default;fillColor=#d5e8d4;aspect=fixed;" vertex="1" parent="-SXecstMaV4YXtNtMgRF-70">
          <mxGeometry x="165.45454545454544" y="31.515" width="7.878629032258066" height="31.514516129032263" as="geometry" />
        </mxCell>
        <mxCell id="-SXecstMaV4YXtNtMgRF-74" value="&lt;font size=&quot;1&quot; face=&quot;Comic Sans MS&quot; color=&quot;#000000&quot;&gt;&lt;b style=&quot;font-size: 16px;&quot;&gt;Redondeo&lt;/b&gt;&lt;/font&gt;" style="text;strokeColor=none;align=center;fillColor=none;html=1;verticalAlign=middle;whiteSpace=wrap;rounded=0;fontFamily=Architects Daughter;fontSource=https://fonts.googleapis.com/css?family=Architects+Daughter;container=0;" vertex="1" parent="-SXecstMaV4YXtNtMgRF-70">
          <mxGeometry x="73" y="1" width="110" height="30" as="geometry" />
        </mxCell>
        <mxCell id="-SXecstMaV4YXtNtMgRF-75" value="&lt;font size=&quot;1&quot; face=&quot;Comic Sans MS&quot; color=&quot;#000000&quot;&gt;&lt;b style=&quot;font-size: 17px;&quot;&gt;n&lt;/b&gt;&lt;/font&gt;" style="text;strokeColor=none;align=center;fillColor=none;html=1;verticalAlign=middle;whiteSpace=wrap;rounded=0;fontFamily=Architects Daughter;fontSource=https://fonts.googleapis.com/css?family=Architects+Daughter;container=0;" vertex="1" parent="-SXecstMaV4YXtNtMgRF-70">
          <mxGeometry x="72" y="31" width="50" height="30" as="geometry" />
        </mxCell>
        <mxCell id="-SXecstMaV4YXtNtMgRF-78" value="" style="group;aspect=fixed;" vertex="1" connectable="0" parent="-SXecstMaV4YXtNtMgRF-91">
          <mxGeometry y="332" width="70" height="40" as="geometry" />
        </mxCell>
        <mxCell id="-SXecstMaV4YXtNtMgRF-76" value="" style="rounded=0;whiteSpace=wrap;html=1;labelBackgroundColor=none;strokeColor=#0f100e;strokeWidth=2;align=center;verticalAlign=middle;fontFamily=Helvetica;fontSize=12;fontColor=default;fillColor=#d5e8d4;" vertex="1" parent="-SXecstMaV4YXtNtMgRF-78">
          <mxGeometry width="70" height="40" as="geometry" />
        </mxCell>
        <mxCell id="-SXecstMaV4YXtNtMgRF-77" value="&lt;font size=&quot;1&quot; face=&quot;Comic Sans MS&quot; color=&quot;#000000&quot;&gt;&lt;b style=&quot;font-size: 17px;&quot;&gt;r&lt;/b&gt;&lt;/font&gt;" style="text;strokeColor=none;align=center;fillColor=none;html=1;verticalAlign=middle;whiteSpace=wrap;rounded=0;fontFamily=Architects Daughter;fontSource=https://fonts.googleapis.com/css?family=Architects+Daughter;container=0;" vertex="1" parent="-SXecstMaV4YXtNtMgRF-78">
          <mxGeometry x="10" y="5" width="50" height="30" as="geometry" />
        </mxCell>
        <mxCell id="-SXecstMaV4YXtNtMgRF-79" value="&lt;font size=&quot;1&quot; face=&quot;Comic Sans MS&quot; color=&quot;#000000&quot;&gt;&lt;b style=&quot;font-size: 17px;&quot;&gt;=&lt;/b&gt;&lt;/font&gt;" style="text;strokeColor=none;align=center;fillColor=none;html=1;verticalAlign=middle;whiteSpace=wrap;rounded=0;fontFamily=Architects Daughter;fontSource=https://fonts.googleapis.com/css?family=Architects+Daughter;container=0;" vertex="1" parent="-SXecstMaV4YXtNtMgRF-91">
          <mxGeometry x="67" y="335" width="50" height="30" as="geometry" />
        </mxCell>
        <mxCell id="-SXecstMaV4YXtNtMgRF-82" value="" style="group;aspect=fixed;" vertex="1" connectable="0" parent="-SXecstMaV4YXtNtMgRF-91">
          <mxGeometry x="161" y="412" width="170" height="50" as="geometry" />
        </mxCell>
        <mxCell id="-SXecstMaV4YXtNtMgRF-80" value="" style="shape=trapezoid;perimeter=trapezoidPerimeter;whiteSpace=wrap;html=1;fixedSize=1;rounded=0;labelBackgroundColor=none;strokeColor=#0F140C;strokeWidth=2;align=center;verticalAlign=middle;fontFamily=Helvetica;fontSize=12;fontColor=default;fillColor=#d5e8d4;aspect=fixed;" vertex="1" parent="-SXecstMaV4YXtNtMgRF-82">
          <mxGeometry width="170" height="50" as="geometry" />
        </mxCell>
        <mxCell id="-SXecstMaV4YXtNtMgRF-81" value="&lt;font size=&quot;1&quot; face=&quot;Comic Sans MS&quot; color=&quot;#000000&quot;&gt;&lt;b style=&quot;font-size: 17px;&quot;&gt;&quot;Redondeo &quot;, r&lt;/b&gt;&lt;/font&gt;" style="text;strokeColor=none;align=center;fillColor=none;html=1;verticalAlign=middle;whiteSpace=wrap;rounded=0;fontFamily=Architects Daughter;fontSource=https://fonts.googleapis.com/css?family=Architects+Daughter;container=0;aspect=fixed;" vertex="1" parent="-SXecstMaV4YXtNtMgRF-82">
          <mxGeometry x="20" y="7" width="130" height="40" as="geometry" />
        </mxCell>
        <mxCell id="-SXecstMaV4YXtNtMgRF-84" value="" style="line;strokeWidth=2;direction=south;html=1;hachureGap=4;fontFamily=Architects Daughter;fontSource=https://fonts.googleapis.com/css?family=Architects+Daughter;strokeColor=#000000;" vertex="1" parent="-SXecstMaV4YXtNtMgRF-91">
          <mxGeometry x="241" y="138" width="10" height="32" as="geometry" />
        </mxCell>
        <mxCell id="-SXecstMaV4YXtNtMgRF-85" value="" style="line;strokeWidth=2;direction=south;html=1;hachureGap=4;fontFamily=Architects Daughter;fontSource=https://fonts.googleapis.com/css?family=Architects+Daughter;strokeColor=#000000;" vertex="1" parent="-SXecstMaV4YXtNtMgRF-91">
          <mxGeometry x="241" y="218" width="10" height="32" as="geometry" />
        </mxCell>
        <mxCell id="-SXecstMaV4YXtNtMgRF-86" value="" style="line;strokeWidth=2;direction=south;html=1;hachureGap=4;fontFamily=Architects Daughter;fontSource=https://fonts.googleapis.com/css?family=Architects+Daughter;strokeColor=#000000;" vertex="1" parent="-SXecstMaV4YXtNtMgRF-91">
          <mxGeometry x="241" y="50" width="10" height="30" as="geometry" />
        </mxCell>
        <mxCell id="-SXecstMaV4YXtNtMgRF-87" value="" style="line;strokeWidth=2;direction=south;html=1;hachureGap=4;fontFamily=Architects Daughter;fontSource=https://fonts.googleapis.com/css?family=Architects+Daughter;strokeColor=#000000;" vertex="1" parent="-SXecstMaV4YXtNtMgRF-91">
          <mxGeometry x="241" y="290" width="10" height="30" as="geometry" />
        </mxCell>
        <mxCell id="-SXecstMaV4YXtNtMgRF-89" value="" style="line;strokeWidth=2;direction=south;html=1;hachureGap=4;fontFamily=Architects Daughter;fontSource=https://fonts.googleapis.com/css?family=Architects+Daughter;strokeColor=#000000;" vertex="1" parent="-SXecstMaV4YXtNtMgRF-91">
          <mxGeometry x="240" y="382" width="10" height="28" as="geometry" />
        </mxCell>
        <mxCell id="-SXecstMaV4YXtNtMgRF-90" value="" style="line;strokeWidth=2;direction=south;html=1;hachureGap=4;fontFamily=Architects Daughter;fontSource=https://fonts.googleapis.com/css?family=Architects+Daughter;strokeColor=#000000;" vertex="1" parent="-SXecstMaV4YXtNtMgRF-91">
          <mxGeometry x="240" y="462" width="10" height="28" as="geometry" />
        </mxCell>
      </root>
    </mxGraphModel>
  </diagram>
</mxfile>
